<svg viewBox="0 0 162 86" xmlns="http://www.w3.org/2000/svg" focusable="false" class="ng-scope">
	<path d="M162 86H19.125V0H162v86zM23.194 81.903h134.722V4.096H23.194v77.807z" fill="#141413">
	</path>
	<path d="M141.858 27.771H0v30.456h141.858V27.772z" fill="#BA9A7D">
	</path>
	<path d="M69.628 42.237c0-1.815-.923-2.898-2.463-2.898s-2.572 1.18-2.618 2.867V47.3h-.94V42.21c-.037-1.691-1.109-2.866-2.612-2.866-1.503 0-2.465 1.083-2.465 2.898V47.3h-.952v-5.375c0-2.119 1.183-3.44 3.095-3.44 1.868 0 2.843.9 3.257 1.53l.149.23.148-.23c.415-.63 1.392-1.53 3.258-1.53 1.911 0 3.097 1.318 3.097 3.44V47.3h-.954v-5.063zm10.438.831v.235h-7.11l.018.201c.191 1.92 1.523 3.208 3.32 3.208a3.8 3.8 0 002.823-1.198l.572.504a4.37 4.37 0 01-3.415 1.494c-2.446 0-4.266-1.932-4.266-4.512s1.76-4.513 4.095-4.513c2.377 0 3.977 1.844 3.977 4.587l-.014-.006zm-.952-.584l-.02-.198c-.162-1.961-1.351-2.927-3.023-2.927-1.671 0-2.857 1.213-3.083 2.924l-.017.2h6.143zm9.842 1.6v-5.41h-.969v5.07c0 1.775-.926 2.799-2.532 2.839h-.36c-1.603-.046-2.586-1.07-2.586-2.838v-5.071h-.966v5.403c0 2.108 1.24 3.418 3.24 3.418h.932c2 0 3.24-1.31 3.24-3.418v.006zm3.083-.219v-.023c0-1.774 1.283-3.153 2.983-3.153a3.263 3.263 0 012.386 1.035l.372-.381a3.729 3.729 0 00-2.75-1.13 3.534 3.534 0 00-2.543 1.07 3.557 3.557 0 00-1.008 2.577v.02c0 2.023 1.497 3.626 3.517 3.626 1.255 0 2.064-.496 2.812-1.23l-.354-.34c-.72.701-1.415 1.094-2.438 1.094-1.688 0-2.991-1.384-2.991-3.17l.014.005zm13.144 3.526h-.571l-.906-1.978h-4.212l-.909 1.978h-.552l3.324-7.115h.506l3.32 7.115zm-1.714-2.454l-1.875-4.085-1.869 4.091 3.744-.006zm8.286 2.454h-.677l-2.286-2.927h-2.357v2.927h-.538v-7.06h3.024c1.554 0 2.57.825 2.57 2.006v.018c0 1.18-.896 1.86-2.113 2.02l2.377 3.016zm-2.886-3.394c1.2 0 2.095-.599 2.095-1.617v-.023c0-.946-.763-1.539-2.07-1.539h-2.457v3.18h2.432zm6.204-3.179h2.463v-.487h-5.452v.487h2.457v6.576h.526l.006-6.576zm6.858-2.007l-.36-.111c-.157.467-.286.619-.526.619-.36 0-.954-.508-1.354-.508-.401 0-.69.261-.89 1.147l.364.112c.157-.47.27-.616.526-.616.357 0 .948.504 1.354.504s.683-.258.886-1.147zm2.029 8.6h-.572l-.903-1.978h-4.23l-.905 1.978h-.546l3.318-7.115h.509l3.329 7.115zm-1.715-2.454l-1.872-4.084-1.883 4.085h3.755zm8.96-1.1v.02c0 1.926-1.408 3.65-3.52 3.65-2.111 0-3.503-1.72-3.503-3.63v-.037c0-1.924 1.406-3.647 3.52-3.647 2.115 0 3.504 1.72 3.504 3.626v.018zm-.536.003c0-1.74-1.257-3.171-2.983-3.171s-2.966 1.408-2.966 3.153v.018c0 1.745 1.257 3.173 2.983 3.173s2.966-1.407 2.966-3.153v-.02z" fill="#fff">
	</path>
</svg>
