<svg viewBox="0 0 162 86" xmlns="http://www.w3.org/2000/svg" focusable="false" class="ng-scope">
	<path d="M162 86H19.125V0H162v86zM23.194 81.903h134.722V4.096H23.194v77.807z" fill="#141413">
	</path>
	<path d="M144.338 27.508H0V58.49h144.338V27.508z" fill="#D71920">
	</path>
	<path d="M36.462 43.001c0 2.17 1.743 3.727 3.892 3.727a3.823 3.823 0 002.94-1.365l-1.091-.926a2.451 2.451 0 01-1.85.834c-.605 0-1.187-.241-1.616-.671a2.296 2.296 0 011.617-3.915 2.458 2.458 0 011.84.822l1.089-.928a3.851 3.851 0 00-2.93-1.353c-2.148 0-3.891 1.582-3.891 3.75V43zm7.81 3.6h1.714l.489-1.218h3.02l.489 1.219h1.714L48.71 39.34h-1.428l-3.01 7.262zm2.648-2.5l1.058-2.637 1.051 2.638H46.92zm6.244 2.5h1.586v-2.416h1.069l1.506 2.417h1.808L57.367 43.8a2.196 2.196 0 001.29-2.064 2.426 2.426 0 00-1.53-2.23 2.404 2.404 0 00-.934-.167h-3.029v7.262zm1.586-3.832v-1.947h1.403a.901.901 0 01.903.958.97.97 0 01-.635.957.96.96 0 01-.402.055l-1.269-.023zm6.972 3.856h1.6v-5.803h1.932v-1.459h-5.486v1.46h1.954v5.801zm5.144-7.924l.857.126a.392.392 0 01.426-.364c.497 0 .857.436 1.557.436.857 0 1.257-.55 1.372-1.416l-.857-.135c-.072.324-.218.436-.458.436-.497 0-.857-.436-1.543-.436-.768 0-1.237.573-1.354 1.353zm-1.6 7.93h1.714l.489-1.22h3.02l.489 1.22h1.714l-2.994-7.262h-1.43l-3.002 7.261zm2.648-2.5l1.06-2.638 1.05 2.637h-2.11zm5.43-1.116a3.873 3.873 0 002.304 3.666 3.854 3.854 0 004.252-.764 3.882 3.882 0 00.892-4.24c-.29-.715-.784-1.328-1.423-1.76s-1.39-.662-2.16-.663a3.77 3.77 0 00-2.714 1.063 3.793 3.793 0 00-1.154 2.684l.003.014zm1.594-.014a2.277 2.277 0 011.412-2.086 2.26 2.26 0 012.462.505 2.275 2.275 0 01.484 2.474 2.272 2.272 0 01-2.089 1.4 2.26 2.26 0 01-2.102-1.416 2.278 2.278 0 01-.167-.877zm12.26 3.615h1.588v-2.417h1.072l1.505 2.417h1.806l-1.763-2.8a2.194 2.194 0 001.286-2.065 2.425 2.425 0 00-1.528-2.228 2.406 2.406 0 00-.932-.168h-3.035v7.26zm1.588-3.833v-1.96h1.406a.901.901 0 01.903.957.97.97 0 01-.635.957.96.96 0 01-.402.055l-1.272-.009zm5.85 3.833h5.017V45.16h-3.429v-1.554h3.123v-1.433h-3.112v-1.35h3.344v-1.46h-4.944v7.253zm6.823 0h1.548v-4.624l3.578 4.633h1.307v-7.262h-1.547v4.512l-3.475-4.512h-1.429l.018 7.253zm8.475 0h1.546v-4.624l3.586 4.633h1.31v-7.262h-1.547v4.512l-3.472-4.512h-1.429l.006 7.253zm8.478 0h5.015V45.16h-3.412v-1.554h3.126v-1.433h-3.126v-1.35h3.343v-1.46h-4.946v7.253zm6.824 0h1.588v-2.417h1.072l1.5 2.417h1.81l-1.76-2.792a2.204 2.204 0 001.288-2.064 2.425 2.425 0 00-1.53-2.23 2.4 2.4 0 00-.934-.167h-3.029l-.004 7.253zm1.588-3.833v-1.96h1.401a.905.905 0 01.904.957.971.971 0 01-.29.742.958.958 0 01-.748.27l-1.266-.009z" fill="#fff">
	</path>
</svg>
