<svg xmlns="http://www.w3.org/2000/svg" viewBox="0 0 500 230" focusable="false" class="ng-scope">
	<g stroke-width="5">
		<path fill="#fff" d="M499.519 222.077v3.842h-3.85v-3.842zm-12.272-13.684l6.496 17.526h-4.09l-1.203-3.842h-6.497l-1.444 3.842h-3.85l6.497-17.526zm.24 10.803l-2.165-6.482-2.166 6.482zm-12.751 2.881v3.842h-3.85v-3.842zm-16.843-.48c.24.48.48.72.962.96.481.24.722.48 1.203.48.481.24.963.24 1.444.24h1.203c.481 0 .722-.24 1.203-.24.24-.24.722-.48.963-.72.24-.24.24-.72.24-1.2s-.24-.96-.481-1.2c-.24-.24-.722-.48-1.203-.72-.481-.24-.963-.48-1.685-.48-.721-.24-1.203-.24-1.924-.481-.722-.24-1.204-.48-1.925-.48-.722-.24-1.203-.48-1.685-.96-.48-.48-.962-.96-1.203-1.441-.24-.48-.481-1.2-.481-1.92 0-.961.24-1.681.481-2.402.481-.72.963-1.2 1.444-1.68.722-.48 1.203-.72 2.166-.96.721-.24 1.684-.24 2.406-.24.962 0 1.684 0 2.646.24.722.24 1.685.48 2.166.96.722.48 1.203.96 1.444 1.68.48.72.48 1.681.48 2.641h-3.368c0-.48-.24-.96-.24-1.2-.241-.24-.482-.72-.722-.72-.24-.24-.722-.24-.963-.48-.48 0-.721-.24-1.203-.24h-.962c-.24 0-.481.24-.963.24l-.721.72c-.241.24-.241.48-.241.96 0 .24 0 .72.24.72.241.24.482.48.722.48.482.24.963.24 1.685.48s1.443.48 2.646.721c.241 0 .722.24 1.444.24.481.24 1.203.48 1.684.72l1.444 1.44c.481.721.722 1.441.722 2.402 0 .72-.24 1.44-.481 2.16-.24.72-.722 1.2-1.444 1.681-.722.48-1.444.96-2.166 1.2-.962.24-1.924.48-3.128.48-.962 0-1.924 0-2.887-.24-.962-.24-1.684-.72-2.406-1.2-.722-.48-1.203-1.2-1.684-1.92s-.722-1.681-.482-2.882h3.61c-.241 1.2-.241 1.681 0 2.161zm-24.304-4.802c.24-.72.722-1.44 1.203-2.16.482-.48 1.203-.96 2.166-1.44.722-.24 1.684-.481 2.647-.481.962 0 1.925.24 2.646.48.722.24 1.444.72 2.166 1.44.481.48.962 1.201 1.203 2.161.24.72.481 1.681.481 2.641s-.24 1.921-.481 2.641c-.24.72-.722 1.44-1.203 2.161-.481.48-1.203.96-2.166 1.44-.721.24-1.684.48-2.646.48-.963 0-1.925-.24-2.647-.48s-1.444-.72-2.166-1.44a4.64 4.64 0 0 1-1.203-2.16c-.24-.721-.481-1.681-.481-2.642 0-.72.24-1.68.481-2.64zm3.128 4.322c0 .48.24.96.481 1.2.241.48.482.72.963.96s.962.24 1.444.24c.48 0 .962 0 1.443-.24.482-.24.722-.48.963-.96.24-.48.481-.72.481-1.2s.24-.96.24-1.44 0-.96-.24-1.441c0-.48-.24-.96-.481-1.2-.24-.48-.481-.72-.963-.96-.48-.24-.962-.24-1.443-.24-.482 0-.963 0-1.444.24s-.722.48-.963.96c-.24.48-.48.72-.48 1.2s-.241.96-.241 1.44.24.96.24 1.44zm-4.57-7.683v2.401H429.5v6.242c0 .48 0 .96.24 1.2.241.24.482.24 1.204.24h.962v2.642h-3.368c-.482 0-.963-.24-1.203-.48-.482-.24-.722-.48-.963-.96s-.24-.961-.24-1.441v-7.443h-2.166v-2.4h2.166v-3.842h3.368v3.841zm-18.286 0v1.68c.481-.72.962-1.2 1.684-1.68.722-.24 1.444-.48 2.166-.48.962 0 1.684.24 2.406.48.481.24.962.72 1.444.96.24.48.481.96.722 1.681.24.72.24 1.44.24 2.16v7.683h-3.368v-7.202c0-.96-.241-1.92-.482-2.4-.24-.481-.962-.721-1.684-.721-.962 0-1.684.24-2.166.96-.48.48-.721 1.44-.721 2.881v6.723h-3.369v-12.725zm-13.476 9.363c.482.48 1.203.72 2.166.72.722 0 1.203-.24 1.925-.48.481-.24.722-.72.962-1.2h3.128c-.48 1.44-1.203 2.641-2.165 3.361s-2.166.96-3.61.96c-.962 0-1.924-.24-2.646-.48s-1.444-.72-1.925-1.44a4.64 4.64 0 0 1-1.203-2.16c-.24-.721-.481-1.681-.481-2.642s.24-1.92.48-2.64c.241-.72.723-1.441 1.204-2.161.481-.48 1.203-.96 1.925-1.44.722-.24 1.684-.481 2.647-.481s1.924.24 2.887.72c.722.48 1.444.96 1.925 1.68.481.721.962 1.441 1.203 2.402.24.96.24 1.92.24 2.88h-9.624c0 1.201.24 1.921.962 2.401zm3.85-6.482c-.481-.48-.962-.72-1.925-.72-.481 0-.962 0-1.443.24-.482.24-.722.48-.963.72-.24.24-.481.48-.481.96 0 .24-.24.48-.24.72h5.533c.241-.96 0-1.44-.48-1.92zm-26.468-2.88v1.68c.48-.72.962-1.2 1.684-1.44s1.444-.481 2.165-.481 1.444.24 2.166.48 1.203.96 1.444 1.68l1.443-1.44c.722-.48 1.444-.72 2.166-.72s1.203 0 1.925.24l1.444.72c.48.24.721.72.962 1.44.24.481.24 1.201.24 2.162v8.402h-3.368v-8.402c0-.48-.24-.72-.24-.96l-.722-.721c-.241-.24-.722-.24-1.204-.24-.48 0-.962 0-1.203.24l-.721.72c-.241.24-.241.72-.241.96v8.163h-3.369V217.756c0-.48 0-.72-.24-.96s-.24-.48-.722-.721c-.24-.24-.722-.24-1.203-.24h-.722c-.24 0-.481.24-.722.48-.24.24-.481.48-.722.96-.24.48-.24.96-.24 1.44v7.203h-3.369v-12.724h3.369zm-9.625-2.162v-2.88h3.37v2.88zm3.61 2.161v12.725h-3.61v-12.725zm-5.535 0v2.401h-2.647v6.242c0 .48 0 .96.24 1.2.241.24.482.24 1.204.24h.962v2.642h-3.368c-.482 0-.963-.24-1.203-.48-.482-.24-.722-.48-.963-.96-.24-.48-.24-.961-.24-1.441v-7.443h-2.166v-2.4h2.166v-3.842h3.368v3.841zm-17.084 9.363c.24.24.24.48.481.72.24.24.481.24.963.48h1.684c.24 0 .481-.24.722-.24.24-.24.481-.24.481-.48.24-.24.24-.48.24-.72 0-.48-.24-.96-.962-1.2s-1.684-.48-2.887-.72c-.481 0-.963-.24-1.444-.48s-.962-.24-1.203-.72c-.481-.24-.722-.48-.962-.961-.241-.48-.241-.96-.241-1.44 0-.72.24-1.441.481-1.921.24-.48.722-.96 1.203-1.2.482-.24 1.203-.48 1.685-.72.721-.241 1.203-.241 1.924-.241s1.444 0 1.925.24c.722.24 1.203.24 1.685.72.481.24.962.72 1.203 1.2.24.48.481 1.201.481 1.921h-2.887c0-.72-.241-1.2-.722-1.44s-.963-.24-1.685-.24h-.721c-.241 0-.482 0-.722.24-.24 0-.24.24-.481.24-.241.24-.241.48-.241.72s0 .48.24.72c.241.24.482.24.963.48s.722.24 1.203.24.963.24 1.444.24.962.24 1.444.481c.48.24.962.48 1.203.72.48.24.721.72.962.96.24.48.24.961.24 1.441 0 .72-.24 1.44-.48 2.16-.241.481-.722.961-1.204 1.441-.48.24-1.203.48-1.925.72-.721.24-1.443.24-2.165.24s-1.444 0-2.166-.24c-.721-.24-1.443-.48-1.925-.72s-.962-.72-1.443-1.44c-.24-.48-.482-1.2-.482-2.16h3.37c.48.48.48.72.721.96zm-13.233 0c.481.48 1.203.72 2.165.72.722 0 1.204-.24 1.925-.48.482-.24.722-.72.963-1.2h3.128c-.481 1.44-1.203 2.641-2.166 3.361-.962.72-2.165.96-3.609.96-.962 0-1.925-.24-2.647-.48s-1.443-.72-1.925-1.44a4.64 4.64 0 0 1-1.203-2.16c-.24-.721-.481-1.681-.481-2.642s.24-1.92.481-2.64c.24-.72.722-1.441 1.203-2.161.482-.48 1.203-.96 1.925-1.44.722-.24 1.685-.481 2.647-.481.963 0 1.925.24 2.887.72.722.48 1.444.96 1.925 1.68s.963 1.441 1.203 2.402c.241.96.241 1.92.241 2.88h-9.143c-.482 1.201 0 1.921.48 2.401zm3.85-6.482c-.482-.48-.963-.72-1.925-.72-.481 0-.963 0-1.444.24s-.722.48-.962.72c-.241.24-.482.48-.482.96 0 .24-.24.48-.24.72h5.534c.24-.96 0-1.44-.481-1.92zm-16.844 9.603l-4.331-12.724h3.61l2.646 8.643 2.647-8.643h3.368l-4.33 12.724zm-13.956-12.484v1.68c.481-.72.963-1.2 1.684-1.68.722-.24 1.444-.48 2.166-.48.962 0 1.684.24 2.406.48.481.24.963.72 1.444.96.24.48.481.96.722 1.681.24.72.24 1.44.24 2.16v7.683h-3.368v-7.202c0-.96-.24-1.92-.482-2.4-.24-.481-.962-.721-1.684-.721-.962 0-1.684.24-2.165.96-.482.48-.722 1.44-.722 2.881v6.723h-3.61v-12.725zm-6.254-5.041v17.526h-3.85v-17.526zm-20.694 14.404c.481.48 1.203.72 2.165.72.722 0 1.204-.24 1.925-.48.482-.24.722-.72.963-1.2h3.128c-.481 1.44-1.203 2.641-2.166 3.361s-2.165.96-3.609.96c-.962 0-1.925-.24-2.647-.48-.722-.24-1.443-.72-1.925-1.44a4.64 4.64 0 0 1-1.203-2.16c-.24-.721-.481-1.681-.481-2.642s.24-1.92.481-2.64c.24-.72.722-1.441 1.203-2.161.482-.48 1.203-.96 1.925-1.44.722-.24 1.685-.481 2.647-.481s1.925.24 2.887.72c.722.48 1.444.96 1.925 1.68.482.721.963 1.441 1.203 2.402.241.96.241 1.92.241 2.88h-9.143c-.482 1.201-.241 1.921.48 2.401zm3.85-6.482c-.481-.48-.963-.72-1.925-.72-.481 0-.963 0-1.444.24s-.722.48-.962.72c-.241.24-.482.48-.482.96 0 .24-.24.48-.24.72h5.534c.24-.96 0-1.44-.481-1.92zm-28.633.48c.24-.72.722-1.44 1.203-2.16.481-.48 1.203-.96 2.165-1.44.722-.24 1.685-.481 2.647-.481.963 0 1.925.24 2.647.48.722.24 1.444.72 2.165 1.44.482.48.963 1.201 1.204 2.161.24.72.48 1.681.48 2.641s-.24 1.921-.48 2.641c-.241.72-.722 1.44-1.204 2.161-.48.48-1.203.96-2.165 1.44-.722.24-1.684.48-2.647.48-.962 0-1.925-.24-2.647-.48-.721-.24-1.443-.72-2.165-1.44a4.64 4.64 0 0 1-1.203-2.16c-.24-.721-.482-1.681-.482-2.642 0-.72 0-1.68.482-2.64zm3.128 4.322c0 .48.24.96.481 1.2.24.48.481.72.962.96.482.24.963.24 1.444.24s.963 0 1.444-.24.722-.48.962-.96.481-.72.481-1.2.241-.96.241-1.44 0-.96-.24-1.441c0-.48-.241-.96-.482-1.2-.24-.48-.481-.72-.962-.96s-.963-.24-1.444-.24-.962 0-1.444.24c-.48.24-.721.48-.962.96-.24.48-.481.72-.481 1.2s-.24.96-.24 1.44 0 .96.24 1.44zm-4.813-7.683v2.401h-2.647v6.242c0 .48 0 .96.24 1.2.241.24.482.24 1.204.24h.962v2.642h-3.368c-.482 0-.963-.24-1.203-.48-.482-.24-.722-.48-.963-.96-.24-.48-.24-.961-.24-1.441v-7.443h-2.166v-2.4h2.166v-3.842h3.368v3.841zm-18.047 0v1.68c.48-.72.962-1.2 1.684-1.68.722-.24 1.444-.48 2.165-.48.963 0 1.685.24 2.407.48.48.24.962.72 1.443.96.24.48.481.96.722 1.681s.24 1.44.24 2.16v7.683h-3.368v-7.202c0-.96-.24-1.92-.481-2.4-.24-.481-.963-.721-1.684-.721-.963 0-1.685.24-2.166.96-.481.48-.722 1.44-.722 2.881v6.723h-3.368v-12.725zm-13.714 9.363c.481.48 1.203.72 2.165.72.722 0 1.203-.24 1.925-.48.482-.24.722-.72.963-1.2h3.128c-.481 1.44-1.203 2.641-2.166 3.361s-2.165.96-3.609.96c-.962 0-1.925-.24-2.647-.48s-1.443-.72-1.925-1.44a4.64 4.64 0 0 1-1.203-2.16c-.24-.721-.481-1.681-.481-2.642s.24-1.92.481-2.64c.24-.72.722-1.441 1.203-2.161.482-.48 1.203-.96 1.925-1.44.722-.24 1.685-.481 2.647-.481.963 0 1.925.24 2.887.72.722.48 1.444.96 1.925 1.68.482.721.963 1.441 1.203 2.402.241.96.241 1.92.241 2.88h-9.143c-.241 1.201 0 1.921.48 2.401zm3.85-6.482c-.481-.48-.963-.72-1.925-.72-.481 0-.963 0-1.444.24s-.722.48-.962.72c-.241.24-.482.48-.482.96 0 .24-.24.48-.24.72h6.015c-.24-.96-.481-1.44-.962-1.92zm-26.228-2.88v1.68c.481-.72.962-1.2 1.684-1.44s1.444-.481 2.166-.481 1.444.24 2.165.48c.722.24 1.204.96 1.444 1.68l1.444-1.44c.722-.48 1.444-.72 2.406-.72.722 0 1.203 0 1.925.24l1.444.72c.48.24.721.72.962 1.44.24.481.24 1.201.24 2.162v8.402h-3.368v-8.402c0-.48-.24-.72-.24-.96l-.722-.721c-.241-.24-.722-.24-1.203-.24s-.963 0-1.204.24l-.721.72c-.241.24-.241.72-.241.96v8.163h-3.369V217.756c0-.48 0-.72-.24-.96s-.24-.48-.722-.721c-.24-.24-.722-.24-1.203-.24h-.722c-.24 0-.481.24-.722.48-.24.24-.481.48-.722.96-.24.48-.24.96-.24 1.44v7.203h-3.369v-12.724h3.128zm-17.564 3.84c0-.72.24-1.44.722-1.92.24-.48.722-.96 1.443-1.2.482-.24 1.203-.48 1.925-.72.722-.241 1.444-.241 2.166-.241s1.203 0 1.925.24c.722 0 1.203.24 1.684.48.481.24.963.72 1.203 1.2.24.48.481.961.481 1.921v8.163c0 .48.241.96.241 1.2h-3.61c0-.24 0-.48-.24-.48v-.72c-.481.48-1.203.96-1.925 1.2s-1.443.24-2.406.24c-.722 0-1.203 0-1.684-.24l-1.444-.72c-.481-.24-.722-.72-.962-1.2-.241-.48-.241-.96-.241-1.68s.24-1.201.481-1.681.481-.72.963-1.2l1.443-.72c.482-.241.963-.241 1.444-.241s.963-.24 1.444-.24.962 0 1.444-.24c.48 0 .721-.24.962-.48s.24-.48.24-.72c0-.48 0-.72-.24-.96 0-.241-.24-.481-.481-.481-.24-.24-.481-.24-.722-.24h-.963c-.721 0-1.203.24-1.684.48s-.722.72-.722 1.44h-2.887zm7.94 2.401c-.24.24-.24.24-.481.24s-.481.24-.722.24c-.24 0-.481 0-.722.24-.24 0-.481 0-.722.24-.24 0-.48 0-.721.24-.241 0-.482.24-.722.24l-.482.481c0 .24-.24.48-.24.72s0 .48.24.72c0 .24.241.48.482.48.24.24.481.24.722.24h.721c.722 0 1.204 0 1.685-.24.481-.24.722-.48.722-.72.24-.24.24-.72.24-.96v-.72zm-14.197-8.402v-2.881h3.369v2.88zm3.61 2.16v12.725h-3.37v-12.725zm-11.55 2.16c-.482 0-.963.241-1.444.481s-.722.48-.963.96c-.24.48-.48.72-.48 1.2 0 .481-.241.961-.241 1.441 0 .48 0 .96.24 1.44 0 .481.24.961.481 1.201.241.48.482.72.963.96s.722.48 1.444.48 1.443-.24 1.924-.72c.482-.48.722-1.2.963-1.92h3.128c-.24 1.68-.963 2.88-1.925 3.841-.962.96-2.406 1.2-4.09 1.2-.963 0-1.925-.24-2.647-.48-.722-.24-1.444-.72-1.925-1.44-.481-.48-.963-1.2-1.203-1.92-.24-.721-.481-1.681-.481-2.642 0-.96.24-1.92.48-2.64.241-.72.723-1.681 1.204-2.161s1.203-1.2 1.925-1.44 1.684-.481 2.647-.481c.721 0 1.443 0 2.165.24s1.203.48 1.925.96l1.444 1.44c.24.481.48 1.201.48 2.162h-3.368c-.48-1.44-1.203-2.161-2.646-2.161zm-17.325-2.16v1.68c.481-.72.962-1.2 1.684-1.68.722-.24 1.444-.48 2.166-.48.962 0 1.684.24 2.406.48.481.24.963.72 1.444.96.24.48.481.96.722 1.681.24.72.24 1.44.24 2.16v7.684h-3.368v-7.203c0-.96-.241-1.92-.482-2.4-.24-.481-.962-.721-1.684-.721-.962 0-1.684.24-2.166.96-.48.48-.721 1.44-.721 2.881v6.723h-3.369v-12.725zm-17.564 3.841c0-.72.241-1.44.722-1.92.24-.48.722-.96 1.444-1.2.481-.24 1.203-.48 1.925-.72.722-.241 1.443-.241 2.165-.241s1.203 0 1.925.24c.722 0 1.203.24 1.685.48.48.24.962.72 1.203 1.2.24.48.48.961.48 1.921v8.163c0 .48.242.96.242 1.2h-3.61c0-.24 0-.48-.24-.48v-.72c-.482.48-1.203.96-1.925 1.2s-1.444.24-2.406.24c-.722 0-1.203 0-1.685-.24l-1.443-.72c-.482-.24-.722-.72-.963-1.2-.24-.48-.24-.96-.24-1.68s.24-1.201.48-1.681c.241-.48.482-.72.963-1.2l1.444-.72c.481-.241.962-.241 1.444-.241.48 0 .962-.24 1.443-.24.482 0 .963 0 1.444-.24.481 0 .722-.24.962-.48.241-.24.241-.48.241-.72 0-.48 0-.72-.24-.96-.241-.241-.241-.481-.482-.481-.24-.24-.481-.24-.722-.24h-.962c-.722 0-1.203.24-1.684.48-.482.24-.722.72-.722 1.44h-2.888zm8.181 2.401c-.24.24-.24.24-.48.24-.242 0-.482.24-.723.24-.24 0-.481 0-.722.24-.24 0-.48 0-.721.24-.241 0-.482 0-.722.24-.24 0-.482.24-.722.24l-.481.481c0 .24-.241.48-.241.72s0 .48.24.72c0 .24.241.48.482.48.24.24.481.24.722.24h.722c.721 0 1.203 0 1.684-.24.481-.24.722-.48.722-.72.24-.24.24-.72.24-.96v-.72zm-19.25-6.242v1.68c.481-.72.963-1.2 1.684-1.68.722-.24 1.444-.48 2.166-.48.962 0 1.684.24 2.406.48.481.24.963.72 1.444.96.24.48.481.96.722 1.681.24.72.24 1.44.24 2.16v7.684h-3.368v-7.203c0-.96-.24-1.92-.482-2.4-.24-.481-.962-.721-1.684-.721-.962 0-1.684.24-2.165.96-.482.48-.722 1.44-.722 2.881v6.723h-3.61v-12.725zm-9.383-2.16v-2.881h3.368v2.88zm3.368 2.16v12.725h-3.368v-12.725zm-5.293-5.041v3.12h-8.422v4.082h7.219v2.881h-7.219v7.203h-3.85v-17.527h12.272zm-21.655 13.685v3.84c0 .481 0 .961-.24 1.441-.241.48-.482.96-.723 1.2s-.722.721-1.203.961c-.481.24-.962.48-1.443.48v-1.68c.24 0 .48-.24.721-.24.241-.24.482-.24.482-.48.24-.24.24-.48.48-.72v-.721h-1.683v-3.841h3.609zm-18.288-5.283c.24-.72.722-1.44 1.203-2.16.482-.48 1.203-.96 2.166-1.44.722-.24 1.684-.481 2.647-.481.962 0 1.925.24 2.646.48.722.24 1.444.72 2.166 1.44.481.48.962 1.201 1.203 2.161.24.72.481 1.681.481 2.641s-.24 1.921-.48 2.641c-.242.72-.723 1.44-1.204 2.161-.481.48-1.203.96-2.166 1.44-.721.24-1.684.48-2.646.48-.963 0-1.925-.24-2.647-.48-.722-.24-1.444-.72-2.166-1.44a4.64 4.64 0 0 1-1.203-2.16c-.24-.721-.481-1.681-.481-2.642 0-.72 0-1.68.481-2.64zm3.128 4.322c0 .48.24.96.481 1.2.241.48.482.72.963.96s.962.24 1.444.24c.48 0 .962 0 1.443-.24.482-.24.722-.48.963-.96.24-.48.481-.72.481-1.2s.24-.96.24-1.44 0-.96-.24-1.441c0-.48-.24-.96-.481-1.2-.24-.48-.481-.72-.963-.96-.48-.24-.962-.24-1.443-.24-.482 0-.963 0-1.444.24s-.722.48-.963.96c-.24.48-.48.72-.48 1.2s-.241.96-.241 1.44 0 .96.24 1.44zm-4.811-7.683v2.401h-2.647v6.242c0 .48 0 .96.24 1.2h2.407v2.642H67.373c-.48 0-.962-.24-1.203-.48-.481-.24-.722-.48-.962-.96s-.24-.961-.24-1.441v-7.443H62.56v-2.4h2.166v-3.842h3.368v3.841h2.647zm-13.236-2.16v-2.881h3.369v2.88zm3.61 2.16v12.725h-3.37v-12.725zm-9.624 10.804c-.481.72-.962 1.2-1.684 1.441-.722.24-1.444.48-2.166.48-.962 0-1.684-.24-2.406-.48-.722-.48-1.203-.96-1.684-1.44-.481-.72-.722-1.441-.963-2.161-.24-.72-.24-1.68-.24-2.641 0-.96 0-1.68.24-2.401s.482-1.44.963-2.16c.481-.721.962-1.201 1.684-1.441.722-.48 1.444-.48 2.406-.48.722 0 1.444.24 2.166.48s1.203.72 1.684 1.44v-6.242h3.369v17.526h-3.369zm-.24-6.242c0-.48-.241-.96-.482-1.2-.24-.48-.481-.72-.962-.96s-.963-.24-1.444-.24-.962 0-1.444.24c-.48.24-.721.48-.962.96s-.481.72-.481 1.2-.241.96-.241 1.44c0 .481 0 .961.24 1.441 0 .48.241.96.482 1.2.24.48.481.721.962.961.482.24.963.24 1.444.24s.963 0 1.444-.24.722-.48.962-.96.481-.72.481-1.2.241-.961.241-1.441c0-.48 0-.96-.24-1.44zm-19.01 4.802c.481.48 1.203.72 2.166.72.722 0 1.203-.24 1.925-.48.48-.24.722-.72.962-1.2h3.128c-.481 1.44-1.203 2.64-2.165 3.36s-2.166.96-3.61.96c-.962 0-1.925-.24-2.646-.48s-1.444-.72-1.925-1.44a4.64 4.64 0 0 1-1.203-2.16c-.241-.72-.482-1.681-.482-2.642 0-.96.241-1.92.482-2.64.24-.72.721-1.441 1.203-2.161.48-.48 1.203-.96 1.925-1.44.721-.24 1.684-.48 2.646-.48.963 0 1.925.24 2.888.72.722.48 1.443.96 1.925 1.68.48.72.962 1.44 1.203 2.4.24.961.24 1.921.24 2.882H31.28c0 1.2.24 1.92.962 2.4zm3.85-6.483c-.481-.48-.962-.72-1.925-.72-.481 0-.962 0-1.444.24-.48.24-.721.48-.962.72-.24.24-.481.48-.481.96 0 .24-.24.481-.24.721h5.533c.24-.96 0-1.44-.48-1.92zm-1.203-9.603l-2.647 4.322h2.406l4.09-4.322zm-12.753 6.722v2.401c.24-.48.482-.72.722-1.2.24-.24.481-.72.963-.96.24-.24.722-.48 1.203-.48.481-.241.722-.241 1.203-.241.24 0 .481 0 .722.24v3.121H25.746c-.722 0-1.203 0-1.685.24-.481.24-.722.48-.962.96s-.481.72-.481 1.201-.241.96-.241 1.68v5.763h-3.61v-12.725zm-9.865-.24c-.24-.48-.48-.72-.962-.96-.24-.24-.722-.48-1.203-.72-.24-.24-.722-.24-1.203-.24-.963 0-1.684.24-2.166.48-.722.24-1.203.72-1.443 1.44-.482.48-.722 1.2-.963 1.92-.24.721-.24 1.441-.24 2.162s0 1.44.24 2.16c.24.72.481 1.2.722 1.921l1.444 1.44c.722.24 1.443.48 2.165.48 1.203 0 2.166-.24 2.647-.96.722-.72.962-1.68 1.203-2.88h3.61c0 1.2-.241 2.16-.723 2.88-.48.96-.962 1.681-1.684 2.161-.722.72-1.444 1.2-2.406 1.44-.962.24-1.925.48-2.887.48-1.444 0-2.647-.24-3.61-.72-.962-.48-1.925-1.2-2.646-1.92-.722-.72-1.204-1.68-1.685-2.881-.481-1.2-.481-2.4-.481-3.601 0-1.2.24-2.401.481-3.602.481-1.2.963-2.16 1.685-2.88.721-.72 1.684-1.441 2.646-1.921.963-.48 2.166-.72 3.61-.72.962 0 1.925.24 2.646.48.963.24 1.685.72 2.407 1.2.721.48 1.203 1.2 1.684 1.92.481.721.722 1.681.722 2.642h-3.128c0-.48-.24-.96-.482-1.2zM53.42 49.217v-4.802c-7.218-.24-13.715.72-19.249 2.401-5.294 1.68-10.106 4.081-13.956 7.203-3.85 2.881-7.218 6.482-9.384 10.563-2.406 3.842-4.09 8.164-5.293 12.725h-.482v-30.01H.244v121.482h4.812v-68.664c0-6.722.963-13.205 2.888-19.447 1.925-6.242 4.812-11.764 8.662-16.566 3.85-4.801 8.903-8.642 14.918-11.283C37.78 49.937 45 48.737 53.42 49.217zm90.472 54.979H46.683c.481-8.402 2.166-16.085 4.812-23.048a61.16 61.16 0 0 1 10.347-17.286C66.173 59.06 71.226 55.219 77 52.818c5.775-2.64 12.03-3.841 18.768-3.841 7.94 0 14.918 1.44 20.933 4.561 6.016 2.881 11.069 6.723 14.919 11.764 4.09 5.042 7.218 11.044 9.143 17.767 2.166 6.722 3.128 13.924 3.128 21.127zm4.572 4.802c.24-8.403-.482-16.326-2.647-24.009-1.925-7.682-5.053-14.645-9.384-20.647s-9.865-10.803-16.843-14.405c-6.737-3.6-14.918-5.522-24.302-5.522-6.738 0-13.475 1.441-19.972 4.322-6.496 2.881-12.27 6.962-17.083 12.484-4.813 5.282-8.903 12.005-11.79 19.927-2.888 7.923-4.572 16.806-4.572 26.89 0 8.882.962 17.525 3.128 25.208 2.165 7.683 5.293 14.405 9.384 20.407 4.33 5.763 9.624 10.084 16.362 13.205 6.737 3.121 14.918 4.561 24.302 4.561 13.956 0 25.505-3.84 35.13-11.524 9.384-7.922 15.159-18.966 16.843-33.131h-4.812c-2.166 13.445-7.46 23.529-15.88 30.25-8.423 6.723-19.01 9.844-31.762 9.844-8.662 0-16.122-1.44-22.137-4.561-6.015-2.881-10.828-7.203-14.678-12.245-3.85-5.281-6.737-11.283-8.421-18.246-1.685-7.202-2.647-14.646-2.888-23.048h102.022zm95.284 10.803c0 6.003-1.203 11.765-3.369 17.527-2.166 5.762-5.294 10.803-9.384 15.125-4.09 4.321-9.143 7.682-15.4 10.323s-13.233 4.082-21.174 4.082c-6.737 0-12.271-.72-16.843-2.401-4.33-1.68-8.18-3.841-10.827-6.482-2.888-2.641-4.813-5.762-6.257-8.883-1.203-3.362-1.684-6.963-1.684-10.324 0-6.482.963-11.764 3.128-15.605 2.166-4.082 4.813-7.203 8.181-9.364 3.369-2.4 7.46-3.841 11.79-4.801 4.572-.96 9.144-1.68 13.956-1.921l14.437-.72c5.053-.24 9.625-.48 13.956-1.2 4.33-.72 7.94-1.441 11.309-2.642s5.774-2.88 7.459-5.281h.48v22.567zm12.993 48.977h7.218v-4.801c-1.684.24-3.368.24-5.293.48-1.684 0-3.369-.24-5.053-.48-1.684-.48-2.888-1.2-3.85-2.401-.962-1.2-1.444-2.881-1.444-5.282V79.227c-.24-6.722-1.443-12.244-3.609-16.565s-5.053-7.923-8.662-10.564c-3.61-2.88-7.94-4.802-12.753-6.002-4.812-1.2-9.865-1.68-15.159-1.68-7.7 0-14.196.96-19.97 3.12-5.535 2.161-10.347 4.802-14.197 8.403-3.85 3.601-6.737 7.923-8.662 12.965-2.166 4.801-3.128 10.083-3.61 15.845h4.813c.722-11.284 4.812-20.167 11.79-26.169 7.219-6.242 17.084-9.363 29.836-9.363 8.181 0 14.437 1.2 19.25 3.361 4.812 2.161 8.18 4.802 10.587 7.923 2.647 3.361 4.09 6.962 4.812 10.804.722 3.841.963 7.682.963 11.283 0 4.563-.963 8.164-2.888 10.565-1.684 2.4-4.571 4.081-8.421 5.521-3.85 1.2-8.663 1.921-14.678 2.401-6.015.24-13.234.72-21.655 1.2-5.053.24-10.106.961-15.16 2.162-5.052.96-9.624 2.64-13.474 5.521-3.85 2.401-7.218 6.003-9.624 10.564s-3.61 10.564-3.61 18.247c0 10.803 3.61 18.966 11.069 24.488 7.459 5.282 17.324 7.923 29.596 7.923 6.256 0 12.27-.961 17.565-2.641 5.293-1.681 10.105-3.841 14.196-6.722 4.33-2.881 7.7-6.003 10.346-9.604 2.888-3.601 4.813-7.442 6.256-11.284h.482v15.846c0 4.561 1.203 7.682 3.85 9.363 2.646 1.92 5.774 2.64 9.143 2.64zm13.715 0h4.812V0h-4.812zm18.046-144.77h4.813V0h-4.813zm0 144.77h4.813V47.296h-4.813zm18.528-4.561l85.178-110.919v-6.002h-83.975v4.802h79.162l-85.418 110.918v6.003h94.08v-4.802zm187.92-60.021h-97.208c.481-8.403 2.165-16.086 4.812-23.048a61.15 61.15 0 0 1 10.347-17.286c4.33-4.802 9.384-8.643 15.158-11.044 5.775-2.64 12.031-3.841 18.768-3.841 7.94 0 14.919 1.44 20.934 4.561 6.015 2.881 11.068 6.723 14.918 11.764 4.09 5.042 7.219 11.044 9.144 17.767 1.925 6.722 3.128 13.924 3.128 21.127zm2.166-19.207c-1.925-7.682-5.053-14.645-9.384-20.647s-9.865-10.803-16.843-14.405c-6.737-3.6-14.918-5.522-24.302-5.522-6.737 0-13.475 1.441-19.971 4.322-6.497 2.881-12.272 6.962-17.084 12.484-4.812 5.282-8.903 12.005-11.79 19.927-2.888 7.923-4.572 16.806-4.572 26.89 0 8.882.963 17.525 3.128 25.208 2.166 7.683 5.294 14.405 9.384 20.407 4.331 5.763 9.625 10.084 16.362 13.205 6.737 3.121 14.918 4.561 24.302 4.561 13.956 0 25.506-3.84 35.13-11.524 9.384-7.922 15.16-18.966 16.843-33.131h-4.812c-2.166 13.445-7.46 23.529-15.88 30.25-8.422 6.723-19.01 9.844-31.762 9.844-8.662 0-16.121-1.44-22.137-4.561-6.015-2.881-10.827-7.203-14.677-12.245-3.85-5.281-6.737-11.283-8.422-18.246-1.684-7.202-2.647-14.646-2.887-23.048h102.02c.242-8.163-.72-16.086-2.646-23.768z">
		</path>
		<path fill="#d71920" d="M500 190.626H0v2.4h500z">
		</path>
	</g>
</svg>
